<?xml version="1.0" encoding="UTF-8" standalone="no"?>
<!-- Uploaded to: SVG Repo, www.svgrepo.com, Generator: SVG Repo Mixer Tools -->

<svg
   width="800px"
   height="800px"
   viewBox="0 0 24 24"
   fill="none"
   version="1.1"
   id="svg6"
   sodipodi:docname="notfall_marker_inside_area_newly_added.svg"
   inkscape:version="1.2.2 (732a01da63, 2022-12-09)"
   xmlns:inkscape="http://www.inkscape.org/namespaces/inkscape"
   xmlns:sodipodi="http://sodipodi.sourceforge.net/DTD/sodipodi-0.dtd"
   xmlns="http://www.w3.org/2000/svg"
   xmlns:svg="http://www.w3.org/2000/svg">
  <defs
     id="defs10">
    <rect
       x="212.8997"
       y="40.94225"
       width="395.77508"
       height="84.613984"
       id="rect3919" />
    <rect
       x="212.8997"
       y="40.942249"
       width="395.77509"
       height="84.613983"
       id="rect3919-9" />
  </defs>
  <sodipodi:namedview
     id="namedview8"
     pagecolor="#ffffff"
     bordercolor="#111111"
     borderopacity="1"
     inkscape:showpageshadow="0"
     inkscape:pageopacity="0"
     inkscape:pagecheckerboard="1"
     inkscape:deskcolor="#d1d1d1"
     showgrid="false"
     inkscape:zoom="0.7327394"
     inkscape:cx="337.0912"
     inkscape:cy="449.00001"
     inkscape:window-width="1920"
     inkscape:window-height="1009"
     inkscape:window-x="-8"
     inkscape:window-y="-8"
     inkscape:window-maximized="1"
     inkscape:current-layer="svg6" />
  <path
     d="m 12.20617,20.470051 c -0.0975,0.0027 -0.194048,-0.01959 -0.280648,-0.06476 C 11.676948,20.267668 5.7352287,17.086208 4.4923589,12.79569 3.7787111,10.367087 4.0192665,7.9951593 5.1338401,6.4894304 5.5412047,5.9460161 6.0724875,5.5099052 6.6825441,5.2181661 7.2925927,4.9264271 7.9633896,4.7876734 8.637931,4.8136998 c 0.72408,-0.035806 1.443421,0.1360014 2.074871,0.495571 0.631458,0.3595697 1.149133,0.8922092 1.493368,1.5363535 0.344235,-0.6441443 0.86191,-1.1767838 1.493368,-1.5363535 0.631459,-0.3595696 1.3508,-0.5313766 2.074871,-0.495571 0.674518,-0.026026 1.345347,0.1127273 1.955395,0.4044663 0.610049,0.2917391 1.141356,0.72785 1.548696,1.2712643 1.114574,1.5057289 1.355129,3.8614666 0.641482,6.3062596 -1.24287,4.290518 -7.216664,7.471978 -7.433164,7.609598 -0.0866,0.04517 -0.183223,0.06743 -0.280648,0.06476 z M 8.637931,6.0279974 C 8.1502932,6.0024404 7.663858,6.0974876 7.2208751,6.3048815 6.7778923,6.5122673 6.3917767,6.825718 6.0960619,7.2180089 5.2140253,8.416116 5.0376179,10.375182 5.6470251,12.455687 c 0.9622218,3.310985 5.3964609,6.047202 6.5591449,6.719113 1.162685,-0.671911 5.612961,-3.416224 6.559145,-6.719113 0.609408,-2.080505 0.433,-4.047666 -0.449036,-5.2376781 C 18.020556,6.825718 17.634464,6.5122673 17.191441,6.3048815 16.748499,6.0974876 16.262015,6.0024404 15.774409,6.0279974 c -2.742332,0 -2.950813,2.6795496 -2.96685,2.9790766 -0.0082,0.156102 -0.07481,0.303226 -0.186511,0.411485 C 12.50935,9.526818 12.361008,9.588091 12.20617,9.589937 12.051333,9.588137 11.90299,9.526817 11.791292,9.418559 11.679594,9.3103 11.61288,9.163176 11.604782,9.007074 11.588745,8.707547 11.404319,6.0279974 8.637931,6.0279974 Z"
     fill="#000000"
     id="path2"
     style="fill:#c42433;fill-opacity:1;stroke-width:0.805682" />
  <path
     d="M 11.510765,14.357311 V 9.890502 c 0,-0.04992 0.06335,-0.09779 0.176167,-0.133083 0.11274,-0.0353 0.265734,-0.05513 0.425222,-0.05513 0.159488,0 0.312482,0.01983 0.425222,0.05513 0.11282,0.0353 0.176167,0.08317 0.176167,0.133083 v 4.466809 c 0,0.04992 -0.06335,0.09779 -0.176167,0.133076 -0.11274,0.0353 -0.265734,0.05513 -0.425222,0.05513 -0.159488,0 -0.312482,-0.01983 -0.425222,-0.05513 -0.11282,-0.03528 -0.176167,-0.08316 -0.176167,-0.133076 z"
     fill="#000000"
     id="path4-7"
     style="fill:#c42433;fill-opacity:1;stroke-width:0.448576" />
  <path
     d="M 14.393433,12.59864 H 9.969001 c -0.04944,0 -0.09686,-0.06395 -0.13182,-0.177855 -0.03496,-0.11382 -0.0546,-0.268278 -0.0546,-0.429294 0,-0.161016 0.01964,-0.315475 0.0546,-0.429295 0.03496,-0.113901 0.08238,-0.177854 0.13182,-0.177854 h 4.424432 c 0.04944,0 0.09686,0.06395 0.131813,0.177854 0.03497,0.11382 0.05461,0.268279 0.05461,0.429295 0,0.161016 -0.01964,0.315474 -0.05461,0.429294 -0.03495,0.113902 -0.08237,0.177855 -0.131813,0.177855 z"
     fill="#000000"
     id="path4-7-6"
     style="fill:#c42433;fill-opacity:1;stroke-width:0.448576" />
  <text
     xml:space="preserve"
     transform="matrix(0.03,0,0,0.03,0.3944745,1.239373)"
     id="text3917"
     style="font-style:normal;font-variant:normal;font-weight:normal;font-stretch:normal;font-size:64px;font-family:Avenir;-inkscape-font-specification:Avenir;white-space:pre;shape-inside:url(#rect3919-9);fill:#c42433;fill-opacity:1"><tspan
       x="212.90039"
       y="93.844966"
       id="tspan11680"><tspan
         style="font-weight:900;-inkscape-font-specification:'Avenir Heavy'"
         id="tspan11678">Hinzugefügt</tspan></tspan></text>
</svg>
