<?xml version="1.0" encoding="UTF-8" standalone="no"?>
<!-- Uploaded to: SVG Repo, www.svgrepo.com, Generator: SVG Repo Mixer Tools -->

<svg
   width="800px"
   height="800px"
   viewBox="0 0 24 24"
   fill="none"
   version="1.1"
   id="svg6"
   sodipodi:docname="notfall_marker_inside_area.svg"
   inkscape:version="1.2.2 (732a01da63, 2022-12-09)"
   xmlns:inkscape="http://www.inkscape.org/namespaces/inkscape"
   xmlns:sodipodi="http://sodipodi.sourceforge.net/DTD/sodipodi-0.dtd"
   xmlns="http://www.w3.org/2000/svg"
   xmlns:svg="http://www.w3.org/2000/svg">
  <defs
     id="defs10">
    <rect
       x="212.8997"
       y="40.94225"
       width="395.77508"
       height="84.613984"
       id="rect3919" />
  </defs>
  <sodipodi:namedview
     id="namedview8"
     pagecolor="#ffffff"
     bordercolor="#111111"
     borderopacity="1"
     inkscape:showpageshadow="0"
     inkscape:pageopacity="0"
     inkscape:pagecheckerboard="1"
     inkscape:deskcolor="#d1d1d1"
     showgrid="false"
     inkscape:zoom="0.7327394"
     inkscape:cx="337.09119"
     inkscape:cy="447.63527"
     inkscape:window-width="1920"
     inkscape:window-height="1009"
     inkscape:window-x="-8"
     inkscape:window-y="-8"
     inkscape:window-maximized="1"
     inkscape:current-layer="svg6" />
  <path
     d="m 12.20617,19.870051 c -0.0975,0.0027 -0.194048,-0.01959 -0.280648,-0.06476 C 11.676948,19.667668 5.7352287,16.486208 4.4923589,12.19569 3.7787111,9.767087 4.0192665,7.3951593 5.1338401,5.8894304 5.5412047,5.3460161 6.0724875,4.9099052 6.6825441,4.6181661 7.2925927,4.3264271 7.9633896,4.1876734 8.637931,4.2136998 c 0.72408,-0.035806 1.443421,0.1360014 2.074871,0.495571 0.631458,0.3595697 1.149133,0.8922092 1.493368,1.5363535 0.344235,-0.6441443 0.86191,-1.1767838 1.493368,-1.5363535 0.631459,-0.3595696 1.3508,-0.5313766 2.074871,-0.495571 0.674518,-0.026026 1.345347,0.1127273 1.955395,0.4044663 0.610049,0.2917391 1.141356,0.72785 1.548696,1.2712643 1.114574,1.5057289 1.355129,3.8614666 0.641482,6.3062596 -1.24287,4.290518 -7.216664,7.471978 -7.433164,7.609598 -0.0866,0.04517 -0.183223,0.06743 -0.280648,0.06476 z M 8.637931,5.4279974 C 8.1502932,5.4024404 7.663858,5.4974876 7.2208751,5.7048815 6.7778923,5.9122673 6.3917767,6.225718 6.0960619,6.6180089 5.2140253,7.816116 5.0376179,9.775182 5.6470251,11.855687 c 0.9622218,3.310985 5.3964609,6.047202 6.5591449,6.719113 1.162685,-0.671911 5.612961,-3.416224 6.559145,-6.719113 0.609408,-2.080505 0.433,-4.047666 -0.449036,-5.2376781 C 18.020556,6.225718 17.634464,5.9122673 17.191441,5.7048815 16.748499,5.4974876 16.262015,5.4024404 15.774409,5.4279974 c -2.742332,0 -2.950813,2.6795496 -2.96685,2.9790766 -0.0082,0.156102 -0.07481,0.303226 -0.186511,0.411485 C 12.50935,8.926818 12.361008,8.988091 12.20617,8.989937 12.051333,8.988137 11.90299,8.926817 11.791292,8.818559 11.679594,8.7103 11.61288,8.563176 11.604782,8.407074 11.588745,8.107547 11.404319,5.4279974 8.637931,5.4279974 Z"
     fill="#000000"
     id="path2"
     style="fill:#c42433;fill-opacity:1;stroke-width:0.805682" />
  <path
     d="M 11.510765,14.357311 V 9.890502 c 0,-0.04992 0.06335,-0.09779 0.176167,-0.133083 0.11274,-0.0353 0.265734,-0.05513 0.425222,-0.05513 0.159488,0 0.312482,0.01983 0.425222,0.05513 0.11282,0.0353 0.176167,0.08317 0.176167,0.133083 v 4.466809 c 0,0.04992 -0.06335,0.09779 -0.176167,0.133076 -0.11274,0.0353 -0.265734,0.05513 -0.425222,0.05513 -0.159488,0 -0.312482,-0.01983 -0.425222,-0.05513 -0.11282,-0.03528 -0.176167,-0.08316 -0.176167,-0.133076 z"
     fill="#000000"
     id="path4-7"
     style="fill:#c42433;fill-opacity:1;stroke-width:0.448576" />
  <path
     d="M 14.393433,12.59864 H 9.969001 c -0.04944,0 -0.09686,-0.06395 -0.13182,-0.177855 -0.03496,-0.11382 -0.0546,-0.268278 -0.0546,-0.429294 0,-0.161016 0.01964,-0.315475 0.0546,-0.429295 0.03496,-0.113901 0.08238,-0.177854 0.13182,-0.177854 h 4.424432 c 0.04944,0 0.09686,0.06395 0.131813,0.177854 0.03497,0.11382 0.05461,0.268279 0.05461,0.429295 0,0.161016 -0.01964,0.315474 -0.05461,0.429294 -0.03495,0.113902 -0.08237,0.177855 -0.131813,0.177855 z"
     fill="#000000"
     id="path4-7-6"
     style="fill:#c42433;fill-opacity:1;stroke-width:0.448576" />
</svg>
